<svg width="354" height="300" viewBox="0 0 354 300" fill="none" xmlns="http://www.w3.org/2000/svg">
<path d="M29 8L197 8" stroke="white" stroke-width="16" stroke-linecap="round"/>
<path d="M8 271L8.00001 29" stroke="white" stroke-width="16" stroke-linecap="round"/>
<path d="M217 102V30" stroke="white" stroke-width="16" stroke-linecap="round"/>
<path d="M100 153H331" stroke="white" stroke-width="16" stroke-linecap="round"/>
<path d="M217 270L217 190" stroke="white" stroke-width="16" stroke-linecap="round"/>
<path d="M29 292L196 292" stroke="white" stroke-width="16" stroke-linecap="round"/>
<mask id="path-7-inside-1_1_50" fill="white">
<path d="M225 30C225 26.0603 224.224 22.1593 222.716 18.5195C221.209 14.8797 218.999 11.5726 216.213 8.78679C213.427 6.00104 210.12 3.79125 206.48 2.28361C202.841 0.775971 198.94 -1.73401e-06 195 -1.31134e-06L195 16.0034C196.838 16.0034 198.658 16.3654 200.356 17.0688C202.054 17.7722 203.597 18.8032 204.897 20.1029C206.197 21.4026 207.228 22.9456 207.931 24.6437C208.635 26.3419 208.997 28.1619 208.997 30L225 30Z"/>
</mask>
<path d="M225 30C225 26.0603 224.224 22.1593 222.716 18.5195C221.209 14.8797 218.999 11.5726 216.213 8.78679C213.427 6.00104 210.12 3.79125 206.48 2.28361C202.841 0.775971 198.94 -1.73401e-06 195 -1.31134e-06L195 16.0034C196.838 16.0034 198.658 16.3654 200.356 17.0688C202.054 17.7722 203.597 18.8032 204.897 20.1029C206.197 21.4026 207.228 22.9456 207.931 24.6437C208.635 26.3419 208.997 28.1619 208.997 30L225 30Z" stroke="white" stroke-width="32" mask="url(#path-7-inside-1_1_50)"/>
<mask id="path-8-inside-2_1_50" fill="white">
<path d="M30 0C26.0603 -4.69799e-08 22.1593 0.775973 18.5195 2.28361C14.8797 3.79126 11.5726 6.00104 8.78679 8.7868C6.00104 11.5726 3.79125 14.8797 2.28361 18.5195C0.775972 22.1593 -5.94871e-07 26.0603 0 30L16.0034 30C16.0034 28.1619 16.3654 26.3419 17.0688 24.6437C17.7722 22.9456 18.8032 21.4026 20.1029 20.1029C21.4026 18.8032 22.9456 17.7722 24.6437 17.0688C26.3419 16.3654 28.1619 16.0034 30 16.0034L30 0Z"/>
</mask>
<path d="M30 0C26.0603 -4.69799e-08 22.1593 0.775973 18.5195 2.28361C14.8797 3.79126 11.5726 6.00104 8.78679 8.7868C6.00104 11.5726 3.79125 14.8797 2.28361 18.5195C0.775972 22.1593 -5.94871e-07 26.0603 0 30L16.0034 30C16.0034 28.1619 16.3654 26.3419 17.0688 24.6437C17.7722 22.9456 18.8032 21.4026 20.1029 20.1029C21.4026 18.8032 22.9456 17.7722 24.6437 17.0688C26.3419 16.3654 28.1619 16.0034 30 16.0034L30 0Z" stroke="white" stroke-width="32" mask="url(#path-8-inside-2_1_50)"/>
<mask id="path-9-inside-3_1_50" fill="white">
<path d="M-1.31134e-06 270C-1.18611e-06 273.94 0.775972 277.841 2.28361 281.481C3.79126 285.12 6.00104 288.427 8.7868 291.213C11.5726 293.999 14.8797 296.209 18.5195 297.716C22.1593 299.224 26.0603 300 30 300L30 283.997C28.1619 283.997 26.3419 283.635 24.6437 282.931C22.9456 282.228 21.4026 281.197 20.1029 279.897C18.8032 278.597 17.7722 277.054 17.0688 275.356C16.3654 273.658 16.0034 271.838 16.0034 270L-1.31134e-06 270Z"/>
</mask>
<path d="M-1.31134e-06 270C-1.18611e-06 273.94 0.775972 277.841 2.28361 281.481C3.79126 285.12 6.00104 288.427 8.7868 291.213C11.5726 293.999 14.8797 296.209 18.5195 297.716C22.1593 299.224 26.0603 300 30 300L30 283.997C28.1619 283.997 26.3419 283.635 24.6437 282.931C22.9456 282.228 21.4026 281.197 20.1029 279.897C18.8032 278.597 17.7722 277.054 17.0688 275.356C16.3654 273.658 16.0034 271.838 16.0034 270L-1.31134e-06 270Z" stroke="white" stroke-width="32" mask="url(#path-9-inside-3_1_50)"/>
<mask id="path-10-inside-4_1_50" fill="white">
<path d="M195 300C198.94 300 202.841 299.224 206.481 297.716C210.12 296.209 213.427 293.999 216.213 291.213C218.999 288.427 221.209 285.12 222.716 281.48C224.224 277.841 225 273.94 225 270L208.997 270C208.997 271.838 208.635 273.658 207.931 275.356C207.228 277.054 206.197 278.597 204.897 279.897C203.597 281.197 202.054 282.228 200.356 282.931C198.658 283.635 196.838 283.997 195 283.997L195 300Z"/>
</mask>
<path d="M195 300C198.94 300 202.841 299.224 206.481 297.716C210.12 296.209 213.427 293.999 216.213 291.213C218.999 288.427 221.209 285.12 222.716 281.48C224.224 277.841 225 273.94 225 270L208.997 270C208.997 271.838 208.635 273.658 207.931 275.356C207.228 277.054 206.197 278.597 204.897 279.897C203.597 281.197 202.054 282.228 200.356 282.931C198.658 283.635 196.838 283.997 195 283.997L195 300Z" stroke="white" stroke-width="32" mask="url(#path-10-inside-4_1_50)"/>
<path d="M347.271 146.953L277.974 77.6569C274.85 74.5327 269.785 74.5327 266.66 77.6569C263.536 80.7811 263.536 85.8464 266.66 88.9706L335.957 158.267L347.271 146.953Z" fill="white"/>
<path d="M266.66 228.978C269.785 232.102 274.85 232.102 277.974 228.978L347.271 159.681L335.957 148.368L266.66 217.664C263.536 220.788 263.536 225.854 266.66 228.978Z" fill="white"/>
<circle cx="341.614" cy="153.317" r="8.5" transform="rotate(45 341.614 153.317)" fill="white"/>
</svg>
